<svg xmlns="http://www.w3.org/2000/svg" xmlns:xlink="http://www.w3.org/1999/xlink" width="500" zoomAndPan="magnify" viewBox="0 0 375 374.999991" height="500" preserveAspectRatio="xMidYMid meet" version="1.0"><defs><g/><clipPath id="0b01eb48a8"><path d="M 136.046875 94.148438 L 238.796875 94.148438 L 238.796875 156 L 136.046875 156 Z M 136.046875 94.148438 " clip-rule="nonzero"/></clipPath><clipPath id="d251e66501"><path d="M 141 146 L 159 146 L 159 187.148438 L 141 187.148438 Z M 141 146 " clip-rule="nonzero"/></clipPath><clipPath id="f933acf773"><path d="M 165 136 L 183 136 L 183 187.148438 L 165 187.148438 Z M 165 136 " clip-rule="nonzero"/></clipPath><clipPath id="bbb75d2863"><path d="M 189 144 L 207 144 L 207 187.148438 L 189 187.148438 Z M 189 144 " clip-rule="nonzero"/></clipPath><clipPath id="7f317cdf13"><path d="M 212 120 L 231 120 L 231 187.148438 L 212 187.148438 Z M 212 120 " clip-rule="nonzero"/></clipPath></defs><g clip-path="url(#0b01eb48a8)"><path fill="#2f5653" d="M 237.96875 94.203125 L 215.644531 96.121094 C 215.140625 96.164062 214.921875 96.785156 215.289062 97.132812 L 220.921875 102.445312 L 219.671875 103.71875 L 218.835938 104.574219 L 214.605469 108.96875 C 212.972656 110.6875 211.347656 112.410156 209.726562 114.140625 C 208.570312 115.386719 207.414062 116.632812 206.269531 117.890625 C 203.523438 120.894531 200.808594 123.921875 198.140625 127.003906 C 196.808594 128.546875 195.484375 130.09375 194.175781 131.660156 C 193.832031 132.078125 193.488281 132.496094 193.144531 132.914062 L 191.746094 132.128906 L 169.953125 119.878906 L 166.472656 117.925781 L 163.980469 120.640625 L 160.863281 124.039062 L 136.304688 150.785156 L 141.464844 155.8125 L 168.03125 130.175781 L 168.035156 130.175781 L 183.585938 140.292969 L 191.539062 145.46875 L 194.421875 147.34375 L 195.085938 147.773438 L 198.839844 144.484375 C 200.375 143.136719 201.886719 141.765625 203.375 140.375 C 204.871094 138.984375 206.34375 137.578125 207.808594 136.164062 C 210.742188 133.335938 213.621094 130.457031 216.472656 127.558594 C 219.332031 124.65625 222.132812 121.710938 224.929688 118.753906 L 229.089844 114.289062 L 229.652344 113.671875 L 231.125 112.066406 L 236.503906 117.140625 C 236.867188 117.480469 237.464844 117.242188 237.492188 116.742188 L 238.605469 94.816406 C 238.625 94.464844 238.324219 94.171875 237.96875 94.203125 " fill-opacity="1" fill-rule="nonzero"/></g><g clip-path="url(#d251e66501)"><path fill="#242424" d="M 141.574219 185.257812 C 141.574219 186.304688 142.425781 187.179688 143.492188 187.179688 L 156.800781 187.179688 C 157.84375 187.179688 158.71875 186.328125 158.71875 185.257812 L 158.71875 146.4375 L 141.574219 162.980469 L 141.574219 185.257812 " fill-opacity="1" fill-rule="nonzero"/></g><g clip-path="url(#f933acf773)"><path fill="#242424" d="M 165.347656 140.039062 L 165.347656 185.257812 C 165.347656 186.304688 166.199219 187.179688 167.269531 187.179688 L 180.570312 187.179688 C 181.617188 187.179688 182.488281 186.328125 182.488281 185.257812 L 182.488281 145.824219 L 168.671875 136.832031 L 165.347656 140.039062 " fill-opacity="1" fill-rule="nonzero"/></g><g clip-path="url(#bbb75d2863)"><path fill="#242424" d="M 195.558594 154.316406 L 189.121094 150.136719 L 189.121094 185.257812 C 189.121094 186.304688 189.96875 187.179688 191.039062 187.179688 L 204.34375 187.179688 C 205.390625 187.179688 206.265625 186.328125 206.265625 185.257812 L 206.265625 144.839844 C 204.984375 146.023438 203.648438 147.226562 202.289062 148.421875 L 195.558594 154.316406 " fill-opacity="1" fill-rule="nonzero"/></g><g clip-path="url(#7f317cdf13)"><path fill="#242424" d="M 220.199219 131.234375 C 217.566406 133.914062 215.15625 136.316406 212.890625 138.523438 L 212.890625 185.257812 C 212.890625 186.304688 213.746094 187.179688 214.8125 187.179688 L 228.117188 187.179688 C 229.164062 187.179688 230.035156 186.328125 230.035156 185.257812 L 230.035156 120.949219 L 228.730469 122.351562 C 226.027344 125.207031 223.144531 128.246094 220.199219 131.234375 " fill-opacity="1" fill-rule="nonzero"/></g><g fill="#000000" fill-opacity="1"><g transform="translate(29.647784, 230.351586)"><g><path d="M 10.21875 -4.078125 C 10.21875 -3.242188 10.28125 -2.644531 10.40625 -2.28125 C 10.539062 -1.914062 10.789062 -1.664062 11.15625 -1.53125 C 11.53125 -1.40625 12.128906 -1.34375 12.953125 -1.34375 L 14.59375 -1.34375 C 17.09375 -1.34375 19.253906 -2.003906 21.078125 -3.328125 C 22.898438 -4.660156 24.113281 -6.460938 24.71875 -8.734375 C 24.71875 -8.796875 24.78125 -8.828125 24.90625 -8.828125 C 24.976562 -8.828125 25.050781 -8.800781 25.125 -8.75 C 25.207031 -8.707031 25.25 -8.671875 25.25 -8.640625 C 24.957031 -5.472656 24.8125 -2.832031 24.8125 -0.71875 C 24.8125 -0.46875 24.753906 -0.285156 24.640625 -0.171875 C 24.535156 -0.0546875 24.351562 0 24.09375 0 L 1.4375 0 C 1.375 0 1.34375 -0.09375 1.34375 -0.28125 C 1.34375 -0.476562 1.375 -0.578125 1.4375 -0.578125 C 2.457031 -0.578125 3.203125 -0.65625 3.671875 -0.8125 C 4.140625 -0.976562 4.457031 -1.289062 4.625 -1.75 C 4.800781 -2.21875 4.890625 -2.929688 4.890625 -3.890625 L 4.890625 -26.109375 C 4.890625 -27.066406 4.800781 -27.769531 4.625 -28.21875 C 4.457031 -28.664062 4.128906 -28.976562 3.640625 -29.15625 C 3.160156 -29.332031 2.425781 -29.421875 1.4375 -29.421875 C 1.375 -29.421875 1.34375 -29.515625 1.34375 -29.703125 C 1.34375 -29.898438 1.375 -30 1.4375 -30 L 3.890625 -29.953125 C 5.359375 -29.890625 6.570312 -29.859375 7.53125 -29.859375 C 8.488281 -29.859375 9.707031 -29.890625 11.1875 -29.953125 L 13.625 -30 C 13.726562 -30 13.78125 -29.898438 13.78125 -29.703125 C 13.78125 -29.515625 13.726562 -29.421875 13.625 -29.421875 C 12.632812 -29.421875 11.898438 -29.332031 11.421875 -29.15625 C 10.941406 -28.976562 10.617188 -28.65625 10.453125 -28.1875 C 10.296875 -27.726562 10.21875 -27.019531 10.21875 -26.0625 Z M 10.21875 -4.078125 "/></g></g></g><g fill="#000000" fill-opacity="1"><g transform="translate(54.751739, 230.351586)"><g><path d="M 23.8125 -7.625 C 23.8125 -7.695312 23.875 -7.734375 24 -7.734375 C 24.09375 -7.734375 24.179688 -7.707031 24.265625 -7.65625 C 24.347656 -7.601562 24.390625 -7.5625 24.390625 -7.53125 C 24.066406 -5.039062 23.90625 -2.769531 23.90625 -0.71875 C 23.90625 -0.46875 23.851562 -0.285156 23.75 -0.171875 C 23.65625 -0.0546875 23.46875 0 23.1875 0 L 1.96875 0 C 1.875 0 1.828125 -0.09375 1.828125 -0.28125 C 1.828125 -0.476562 1.875 -0.578125 1.96875 -0.578125 C 2.988281 -0.578125 3.726562 -0.65625 4.1875 -0.8125 C 4.65625 -0.976562 4.96875 -1.289062 5.125 -1.75 C 5.289062 -2.21875 5.375 -2.929688 5.375 -3.890625 L 5.375 -26.109375 C 5.375 -27.066406 5.289062 -27.769531 5.125 -28.21875 C 4.96875 -28.664062 4.648438 -28.976562 4.171875 -29.15625 C 3.691406 -29.332031 2.957031 -29.421875 1.96875 -29.421875 C 1.875 -29.421875 1.828125 -29.515625 1.828125 -29.703125 C 1.828125 -29.898438 1.875 -30 1.96875 -30 L 22.3125 -30 C 22.632812 -30 22.796875 -29.851562 22.796875 -29.5625 L 22.890625 -23.1875 C 22.890625 -23.125 22.800781 -23.070312 22.625 -23.03125 C 22.457031 -23 22.351562 -23.035156 22.3125 -23.140625 C 21.800781 -24.992188 20.9375 -26.367188 19.71875 -27.265625 C 18.507812 -28.160156 16.910156 -28.609375 14.921875 -28.609375 L 13.484375 -28.609375 C 12.523438 -28.609375 11.820312 -28.398438 11.375 -27.984375 C 10.925781 -27.566406 10.703125 -26.925781 10.703125 -26.0625 L 10.703125 -16.265625 L 14.6875 -16.265625 C 16.539062 -16.265625 17.960938 -16.582031 18.953125 -17.21875 C 19.953125 -17.863281 20.453125 -18.765625 20.453125 -19.921875 C 20.453125 -20.015625 20.535156 -20.0625 20.703125 -20.0625 C 20.878906 -20.0625 20.96875 -20.015625 20.96875 -19.921875 L 20.921875 -15.59375 L 20.96875 -13.296875 C 21.039062 -12.203125 21.078125 -11.335938 21.078125 -10.703125 C 21.078125 -10.640625 20.976562 -10.609375 20.78125 -10.609375 C 20.59375 -10.609375 20.5 -10.640625 20.5 -10.703125 C 20.5 -12.015625 19.992188 -13.046875 18.984375 -13.796875 C 17.972656 -14.546875 16.523438 -14.921875 14.640625 -14.921875 L 10.703125 -14.921875 L 10.703125 -4.078125 C 10.703125 -3.148438 10.878906 -2.460938 11.234375 -2.015625 C 11.585938 -1.566406 12.144531 -1.34375 12.90625 -1.34375 L 14.5 -1.34375 C 16.988281 -1.34375 18.984375 -1.851562 20.484375 -2.875 C 21.992188 -3.90625 23.101562 -5.488281 23.8125 -7.625 Z M 23.8125 -7.625 "/></g></g></g><g fill="#000000" fill-opacity="1"><g transform="translate(80.191693, 230.351586)"><g><path d="M 15.640625 0.1875 C 14.617188 0.1875 13.40625 0.140625 12 0.046875 C 11.488281 0.015625 10.851562 -0.015625 10.09375 -0.046875 C 9.34375 -0.078125 8.503906 -0.09375 7.578125 -0.09375 L 4.03125 -0.046875 C 3.394531 -0.015625 2.53125 0 1.4375 0 C 1.375 0 1.34375 -0.09375 1.34375 -0.28125 C 1.34375 -0.476562 1.375 -0.578125 1.4375 -0.578125 C 2.457031 -0.578125 3.207031 -0.65625 3.6875 -0.8125 C 4.175781 -0.976562 4.503906 -1.289062 4.671875 -1.75 C 4.847656 -2.21875 4.9375 -2.929688 4.9375 -3.890625 L 4.9375 -26.109375 C 4.9375 -27.066406 4.847656 -27.769531 4.671875 -28.21875 C 4.503906 -28.664062 4.1875 -28.976562 3.71875 -29.15625 C 3.257812 -29.332031 2.53125 -29.421875 1.53125 -29.421875 C 1.4375 -29.421875 1.390625 -29.515625 1.390625 -29.703125 C 1.390625 -29.898438 1.4375 -30 1.53125 -30 L 4.078125 -29.953125 C 5.546875 -29.890625 6.710938 -29.859375 7.578125 -29.859375 C 8.890625 -29.859375 10.234375 -29.90625 11.609375 -30 C 13.273438 -30.0625 14.394531 -30.09375 14.96875 -30.09375 C 18.207031 -30.09375 21.082031 -29.453125 23.59375 -28.171875 C 26.101562 -26.890625 28.046875 -25.144531 29.421875 -22.9375 C 30.796875 -20.726562 31.484375 -18.25 31.484375 -15.5 C 31.484375 -12.394531 30.769531 -9.648438 29.34375 -7.265625 C 27.925781 -4.890625 26.007812 -3.050781 23.59375 -1.75 C 21.175781 -0.457031 18.523438 0.1875 15.640625 0.1875 Z M 15.171875 -0.90625 C 17.210938 -0.90625 19.015625 -1.425781 20.578125 -2.46875 C 22.148438 -3.507812 23.375 -5.050781 24.25 -7.09375 C 25.132812 -9.144531 25.578125 -11.597656 25.578125 -14.453125 C 25.578125 -17.171875 25.160156 -19.640625 24.328125 -21.859375 C 23.503906 -24.085938 22.320312 -25.84375 20.78125 -27.125 C 19.25 -28.40625 17.472656 -29.046875 15.453125 -29.046875 C 13.472656 -29.046875 12.113281 -28.851562 11.375 -28.46875 C 10.632812 -28.082031 10.265625 -27.265625 10.265625 -26.015625 L 10.265625 -4.421875 C 10.265625 -3.140625 10.597656 -2.234375 11.265625 -1.703125 C 11.941406 -1.171875 13.242188 -0.90625 15.171875 -0.90625 Z M 15.171875 -0.90625 "/></g></g></g><g fill="#000000" fill-opacity="1"><g transform="translate(112.975633, 230.351586)"><g><path d="M 20.203125 0.578125 C 16.554688 0.578125 13.390625 -0.0976562 10.703125 -1.453125 C 8.015625 -2.816406 5.953125 -4.664062 4.515625 -7 C 3.078125 -9.34375 2.359375 -11.9375 2.359375 -14.78125 C 2.359375 -17.820312 3.164062 -20.539062 4.78125 -22.9375 C 6.394531 -25.34375 8.625 -27.207031 11.46875 -28.53125 C 14.320312 -29.863281 17.523438 -30.53125 21.078125 -30.53125 C 22.609375 -30.53125 24.140625 -30.410156 25.671875 -30.171875 C 27.210938 -29.929688 28.445312 -29.617188 29.375 -29.234375 C 29.726562 -29.109375 29.925781 -29.003906 29.96875 -28.921875 C 30.019531 -28.835938 30.0625 -28.570312 30.09375 -28.125 L 30.71875 -21.453125 C 30.71875 -21.359375 30.628906 -21.296875 30.453125 -21.265625 C 30.273438 -21.234375 30.171875 -21.28125 30.140625 -21.40625 C 29.722656 -22.457031 29.050781 -23.609375 28.125 -24.859375 C 27.195312 -26.109375 25.976562 -27.195312 24.46875 -28.125 C 22.96875 -29.050781 21.226562 -29.515625 19.25 -29.515625 C 17.195312 -29.515625 15.320312 -28.953125 13.625 -27.828125 C 11.9375 -26.710938 10.601562 -25.113281 9.625 -23.03125 C 8.644531 -20.957031 8.15625 -18.546875 8.15625 -15.796875 C 8.15625 -12.785156 8.722656 -10.09375 9.859375 -7.71875 C 10.992188 -5.351562 12.566406 -3.515625 14.578125 -2.203125 C 16.597656 -0.890625 18.875 -0.234375 21.40625 -0.234375 C 22.71875 -0.234375 23.722656 -0.378906 24.421875 -0.671875 C 25.128906 -0.960938 25.644531 -1.519531 25.96875 -2.34375 C 26.289062 -3.175781 26.453125 -4.410156 26.453125 -6.046875 C 26.453125 -7.710938 26.351562 -8.875 26.15625 -9.53125 C 25.96875 -10.1875 25.5625 -10.625 24.9375 -10.84375 C 24.3125 -11.070312 23.210938 -11.1875 21.640625 -11.1875 C 21.453125 -11.1875 21.359375 -11.3125 21.359375 -11.5625 C 21.359375 -11.664062 21.378906 -11.753906 21.421875 -11.828125 C 21.472656 -11.910156 21.53125 -11.953125 21.59375 -11.953125 C 24.320312 -11.796875 26.53125 -11.71875 28.21875 -11.71875 C 29.851562 -11.71875 31.550781 -11.765625 33.3125 -11.859375 C 33.4375 -11.859375 33.503906 -11.742188 33.515625 -11.515625 C 33.535156 -11.296875 33.46875 -11.1875 33.3125 -11.1875 C 32.738281 -11.21875 32.332031 -11.113281 32.09375 -10.875 C 31.851562 -10.632812 31.695312 -10.144531 31.625 -9.40625 C 31.5625 -8.664062 31.53125 -7.382812 31.53125 -5.5625 C 31.53125 -4.125 31.585938 -3.097656 31.703125 -2.484375 C 31.816406 -1.878906 31.875 -1.5 31.875 -1.34375 C 31.875 -1.15625 31.84375 -1.023438 31.78125 -0.953125 C 31.71875 -0.890625 31.570312 -0.828125 31.34375 -0.765625 C 27.21875 0.128906 23.503906 0.578125 20.203125 0.578125 Z M 20.203125 0.578125 "/></g></g></g><g fill="#000000" fill-opacity="1"><g transform="translate(147.007568, 230.351586)"><g><path d="M 23.8125 -7.625 C 23.8125 -7.695312 23.875 -7.734375 24 -7.734375 C 24.09375 -7.734375 24.179688 -7.707031 24.265625 -7.65625 C 24.347656 -7.601562 24.390625 -7.5625 24.390625 -7.53125 C 24.066406 -5.039062 23.90625 -2.769531 23.90625 -0.71875 C 23.90625 -0.46875 23.851562 -0.285156 23.75 -0.171875 C 23.65625 -0.0546875 23.46875 0 23.1875 0 L 1.96875 0 C 1.875 0 1.828125 -0.09375 1.828125 -0.28125 C 1.828125 -0.476562 1.875 -0.578125 1.96875 -0.578125 C 2.988281 -0.578125 3.726562 -0.65625 4.1875 -0.8125 C 4.65625 -0.976562 4.96875 -1.289062 5.125 -1.75 C 5.289062 -2.21875 5.375 -2.929688 5.375 -3.890625 L 5.375 -26.109375 C 5.375 -27.066406 5.289062 -27.769531 5.125 -28.21875 C 4.96875 -28.664062 4.648438 -28.976562 4.171875 -29.15625 C 3.691406 -29.332031 2.957031 -29.421875 1.96875 -29.421875 C 1.875 -29.421875 1.828125 -29.515625 1.828125 -29.703125 C 1.828125 -29.898438 1.875 -30 1.96875 -30 L 22.3125 -30 C 22.632812 -30 22.796875 -29.851562 22.796875 -29.5625 L 22.890625 -23.1875 C 22.890625 -23.125 22.800781 -23.070312 22.625 -23.03125 C 22.457031 -23 22.351562 -23.035156 22.3125 -23.140625 C 21.800781 -24.992188 20.9375 -26.367188 19.71875 -27.265625 C 18.507812 -28.160156 16.910156 -28.609375 14.921875 -28.609375 L 13.484375 -28.609375 C 12.523438 -28.609375 11.820312 -28.398438 11.375 -27.984375 C 10.925781 -27.566406 10.703125 -26.925781 10.703125 -26.0625 L 10.703125 -16.265625 L 14.6875 -16.265625 C 16.539062 -16.265625 17.960938 -16.582031 18.953125 -17.21875 C 19.953125 -17.863281 20.453125 -18.765625 20.453125 -19.921875 C 20.453125 -20.015625 20.535156 -20.0625 20.703125 -20.0625 C 20.878906 -20.0625 20.96875 -20.015625 20.96875 -19.921875 L 20.921875 -15.59375 L 20.96875 -13.296875 C 21.039062 -12.203125 21.078125 -11.335938 21.078125 -10.703125 C 21.078125 -10.640625 20.976562 -10.609375 20.78125 -10.609375 C 20.59375 -10.609375 20.5 -10.640625 20.5 -10.703125 C 20.5 -12.015625 19.992188 -13.046875 18.984375 -13.796875 C 17.972656 -14.546875 16.523438 -14.921875 14.640625 -14.921875 L 10.703125 -14.921875 L 10.703125 -4.078125 C 10.703125 -3.148438 10.878906 -2.460938 11.234375 -2.015625 C 11.585938 -1.566406 12.144531 -1.34375 12.90625 -1.34375 L 14.5 -1.34375 C 16.988281 -1.34375 18.984375 -1.851562 20.484375 -2.875 C 21.992188 -3.90625 23.101562 -5.488281 23.8125 -7.625 Z M 23.8125 -7.625 "/></g></g></g><g fill="#000000" fill-opacity="1"><g transform="translate(172.447519, 230.351586)"><g><path d="M 33.984375 -0.578125 C 34.046875 -0.578125 34.078125 -0.476562 34.078125 -0.28125 C 34.078125 -0.09375 34.046875 0 33.984375 0 L 25.4375 0 C 24.738281 0 23.425781 -1.269531 21.5 -3.8125 C 19.582031 -6.351562 17.265625 -9.914062 14.546875 -14.5 C 14.285156 -14.46875 13.914062 -14.453125 13.4375 -14.453125 C 12.1875 -14.453125 11.304688 -14.46875 10.796875 -14.5 L 10.796875 -3.890625 C 10.796875 -2.898438 10.875 -2.179688 11.03125 -1.734375 C 11.195312 -1.285156 11.507812 -0.976562 11.96875 -0.8125 C 12.4375 -0.65625 13.179688 -0.578125 14.203125 -0.578125 C 14.265625 -0.578125 14.296875 -0.476562 14.296875 -0.28125 C 14.296875 -0.09375 14.265625 0 14.203125 0 C 13.148438 0 12.320312 -0.015625 11.71875 -0.046875 L 8.0625 -0.09375 L 4.5625 -0.046875 C 3.914062 -0.015625 3.050781 0 1.96875 0 C 1.875 0 1.828125 -0.09375 1.828125 -0.28125 C 1.828125 -0.476562 1.875 -0.578125 1.96875 -0.578125 C 2.988281 -0.578125 3.726562 -0.65625 4.1875 -0.8125 C 4.65625 -0.976562 4.976562 -1.289062 5.15625 -1.75 C 5.332031 -2.21875 5.421875 -2.929688 5.421875 -3.890625 L 5.421875 -26.109375 C 5.421875 -27.066406 5.335938 -27.769531 5.171875 -28.21875 C 5.015625 -28.664062 4.695312 -28.976562 4.21875 -29.15625 C 3.738281 -29.332031 3.003906 -29.421875 2.015625 -29.421875 C 1.953125 -29.421875 1.921875 -29.515625 1.921875 -29.703125 C 1.921875 -29.898438 1.953125 -30 2.015625 -30 L 4.5625 -29.953125 C 6.03125 -29.890625 7.195312 -29.859375 8.0625 -29.859375 C 9.15625 -29.859375 10.289062 -29.90625 11.46875 -30 C 11.882812 -30.03125 12.40625 -30.0625 13.03125 -30.09375 C 13.65625 -30.125 14.351562 -30.140625 15.125 -30.140625 C 18.03125 -30.140625 20.28125 -29.601562 21.875 -28.53125 C 23.476562 -27.457031 24.28125 -25.960938 24.28125 -24.046875 C 24.28125 -22.285156 23.800781 -20.691406 22.84375 -19.265625 C 21.882812 -17.847656 20.609375 -16.707031 19.015625 -15.84375 C 21.566406 -12 23.707031 -8.988281 25.4375 -6.8125 C 27.164062 -4.632812 28.703125 -3.050781 30.046875 -2.0625 C 31.390625 -1.070312 32.703125 -0.578125 33.984375 -0.578125 Z M 10.796875 -15.84375 C 11.566406 -15.707031 12.492188 -15.640625 13.578125 -15.640625 C 15.441406 -15.640625 16.78125 -16.160156 17.59375 -17.203125 C 18.40625 -18.242188 18.8125 -19.914062 18.8125 -22.21875 C 18.8125 -24.84375 18.425781 -26.648438 17.65625 -27.640625 C 16.894531 -28.640625 15.796875 -29.140625 14.359375 -29.140625 C 13.078125 -29.140625 12.160156 -28.898438 11.609375 -28.421875 C 11.066406 -27.941406 10.796875 -27.140625 10.796875 -26.015625 Z M 10.796875 -15.84375 "/></g></g></g><g fill="#000000" fill-opacity="1"><g transform="translate(204.895454, 230.351586)"><g/></g></g><g fill="#000000" fill-opacity="1"><g transform="translate(215.071425, 230.351586)"><g><path d="M 15.640625 0.1875 C 14.617188 0.1875 13.40625 0.140625 12 0.046875 C 11.488281 0.015625 10.851562 -0.015625 10.09375 -0.046875 C 9.34375 -0.078125 8.503906 -0.09375 7.578125 -0.09375 L 4.03125 -0.046875 C 3.394531 -0.015625 2.53125 0 1.4375 0 C 1.375 0 1.34375 -0.09375 1.34375 -0.28125 C 1.34375 -0.476562 1.375 -0.578125 1.4375 -0.578125 C 2.457031 -0.578125 3.207031 -0.65625 3.6875 -0.8125 C 4.175781 -0.976562 4.503906 -1.289062 4.671875 -1.75 C 4.847656 -2.21875 4.9375 -2.929688 4.9375 -3.890625 L 4.9375 -26.109375 C 4.9375 -27.066406 4.847656 -27.769531 4.671875 -28.21875 C 4.503906 -28.664062 4.1875 -28.976562 3.71875 -29.15625 C 3.257812 -29.332031 2.53125 -29.421875 1.53125 -29.421875 C 1.4375 -29.421875 1.390625 -29.515625 1.390625 -29.703125 C 1.390625 -29.898438 1.4375 -30 1.53125 -30 L 4.078125 -29.953125 C 5.546875 -29.890625 6.710938 -29.859375 7.578125 -29.859375 C 8.890625 -29.859375 10.234375 -29.90625 11.609375 -30 C 13.273438 -30.0625 14.394531 -30.09375 14.96875 -30.09375 C 18.207031 -30.09375 21.082031 -29.453125 23.59375 -28.171875 C 26.101562 -26.890625 28.046875 -25.144531 29.421875 -22.9375 C 30.796875 -20.726562 31.484375 -18.25 31.484375 -15.5 C 31.484375 -12.394531 30.769531 -9.648438 29.34375 -7.265625 C 27.925781 -4.890625 26.007812 -3.050781 23.59375 -1.75 C 21.175781 -0.457031 18.523438 0.1875 15.640625 0.1875 Z M 15.171875 -0.90625 C 17.210938 -0.90625 19.015625 -1.425781 20.578125 -2.46875 C 22.148438 -3.507812 23.375 -5.050781 24.25 -7.09375 C 25.132812 -9.144531 25.578125 -11.597656 25.578125 -14.453125 C 25.578125 -17.171875 25.160156 -19.640625 24.328125 -21.859375 C 23.503906 -24.085938 22.320312 -25.84375 20.78125 -27.125 C 19.25 -28.40625 17.472656 -29.046875 15.453125 -29.046875 C 13.472656 -29.046875 12.113281 -28.851562 11.375 -28.46875 C 10.632812 -28.082031 10.265625 -27.265625 10.265625 -26.015625 L 10.265625 -4.421875 C 10.265625 -3.140625 10.597656 -2.234375 11.265625 -1.703125 C 11.941406 -1.171875 13.242188 -0.90625 15.171875 -0.90625 Z M 15.171875 -0.90625 "/></g></g></g><g fill="#000000" fill-opacity="1"><g transform="translate(247.855358, 230.351586)"><g><path d="M 34.421875 -0.578125 C 34.578125 -0.578125 34.65625 -0.476562 34.65625 -0.28125 C 34.65625 -0.09375 34.578125 0 34.421875 0 C 33.773438 0 32.78125 -0.03125 31.4375 -0.09375 C 30.03125 -0.15625 29.023438 -0.1875 28.421875 -0.1875 C 27.617188 -0.1875 26.640625 -0.15625 25.484375 -0.09375 C 24.398438 -0.03125 23.535156 0 22.890625 0 C 22.765625 0 22.703125 -0.09375 22.703125 -0.28125 C 22.703125 -0.476562 22.765625 -0.578125 22.890625 -0.578125 C 23.722656 -0.578125 24.320312 -0.664062 24.6875 -0.84375 C 25.0625 -1.019531 25.25 -1.332031 25.25 -1.78125 C 25.25 -2.320312 24.925781 -3.234375 24.28125 -4.515625 L 21.03125 -10.984375 L 9.21875 -10.984375 L 7.34375 -6.8125 C 6.925781 -5.882812 6.71875 -5.019531 6.71875 -4.21875 C 6.71875 -3.070312 7.125 -2.175781 7.9375 -1.53125 C 8.757812 -0.894531 9.859375 -0.578125 11.234375 -0.578125 C 11.390625 -0.578125 11.46875 -0.476562 11.46875 -0.28125 C 11.46875 -0.09375 11.390625 0 11.234375 0 C 10.660156 0 9.828125 -0.03125 8.734375 -0.09375 C 7.515625 -0.15625 6.457031 -0.1875 5.5625 -0.1875 C 4.695312 -0.1875 3.660156 -0.15625 2.453125 -0.09375 C 1.359375 -0.03125 0.476562 0 -0.1875 0 C -0.320312 0 -0.390625 -0.09375 -0.390625 -0.28125 C -0.390625 -0.476562 -0.320312 -0.578125 -0.1875 -0.578125 C 0.707031 -0.578125 1.457031 -0.757812 2.0625 -1.125 C 2.664062 -1.5 3.269531 -2.15625 3.875 -3.09375 C 4.488281 -4.039062 5.210938 -5.441406 6.046875 -7.296875 L 16.46875 -30.1875 C 16.53125 -30.289062 16.671875 -30.34375 16.890625 -30.34375 C 17.148438 -30.34375 17.296875 -30.289062 17.328125 -30.1875 L 29.328125 -6.578125 C 30.453125 -4.304688 31.378906 -2.738281 32.109375 -1.875 C 32.847656 -1.007812 33.617188 -0.578125 34.421875 -0.578125 Z M 9.84375 -12.34375 L 20.296875 -12.34375 L 14.78125 -23.28125 Z M 9.84375 -12.34375 "/></g></g></g><g fill="#000000" fill-opacity="1"><g transform="translate(281.167299, 230.351586)"><g><path d="M 10.65625 -28.890625 C 6.84375 -28.890625 4.109375 -26.410156 2.453125 -21.453125 C 2.421875 -21.359375 2.320312 -21.316406 2.15625 -21.328125 C 2 -21.347656 1.921875 -21.40625 1.921875 -21.5 C 2.046875 -22.78125 2.1875 -24.4375 2.34375 -26.46875 C 2.507812 -28.5 2.59375 -30.03125 2.59375 -31.0625 C 2.59375 -31.21875 2.679688 -31.296875 2.859375 -31.296875 C 3.035156 -31.296875 3.125 -31.21875 3.125 -31.0625 C 3.125 -30.351562 4.035156 -30 5.859375 -30 C 8.609375 -29.90625 11.820312 -29.859375 15.5 -29.859375 C 17.394531 -29.859375 19.394531 -29.890625 21.5 -29.953125 L 24.765625 -30 C 25.984375 -30 26.867188 -30.078125 27.421875 -30.234375 C 27.984375 -30.398438 28.347656 -30.722656 28.515625 -31.203125 C 28.546875 -31.328125 28.648438 -31.390625 28.828125 -31.390625 C 29.003906 -31.390625 29.09375 -31.328125 29.09375 -31.203125 C 28.988281 -30.242188 28.878906 -28.707031 28.765625 -26.59375 C 28.660156 -24.476562 28.609375 -22.78125 28.609375 -21.5 C 28.609375 -21.40625 28.523438 -21.359375 28.359375 -21.359375 C 28.203125 -21.359375 28.109375 -21.40625 28.078125 -21.5 C 27.597656 -23.96875 26.703125 -25.816406 25.390625 -27.046875 C 24.078125 -28.273438 22.460938 -28.890625 20.546875 -28.890625 C 19.617188 -28.890625 19 -28.691406 18.6875 -28.296875 C 18.382812 -27.898438 18.234375 -27.140625 18.234375 -26.015625 L 18.234375 -3.890625 C 18.234375 -2.898438 18.328125 -2.179688 18.515625 -1.734375 C 18.710938 -1.285156 19.082031 -0.976562 19.625 -0.8125 C 20.175781 -0.65625 21.039062 -0.578125 22.21875 -0.578125 C 22.320312 -0.578125 22.375 -0.476562 22.375 -0.28125 C 22.375 -0.09375 22.320312 0 22.21875 0 C 21.070312 0 20.160156 -0.015625 19.484375 -0.046875 L 15.5 -0.09375 L 11.609375 -0.046875 C 10.941406 -0.015625 10.015625 0 8.828125 0 C 8.734375 0 8.6875 -0.09375 8.6875 -0.28125 C 8.6875 -0.476562 8.734375 -0.578125 8.828125 -0.578125 C 9.984375 -0.578125 10.835938 -0.65625 11.390625 -0.8125 C 11.953125 -0.976562 12.335938 -1.289062 12.546875 -1.75 C 12.753906 -2.21875 12.859375 -2.929688 12.859375 -3.890625 L 12.859375 -26.109375 C 12.859375 -27.203125 12.710938 -27.9375 12.421875 -28.3125 C 12.140625 -28.695312 11.550781 -28.890625 10.65625 -28.890625 Z M 10.65625 -28.890625 "/></g></g></g><g fill="#000000" fill-opacity="1"><g transform="translate(310.975242, 230.351586)"><g><path d="M 34.421875 -0.578125 C 34.578125 -0.578125 34.65625 -0.476562 34.65625 -0.28125 C 34.65625 -0.09375 34.578125 0 34.421875 0 C 33.773438 0 32.78125 -0.03125 31.4375 -0.09375 C 30.03125 -0.15625 29.023438 -0.1875 28.421875 -0.1875 C 27.617188 -0.1875 26.640625 -0.15625 25.484375 -0.09375 C 24.398438 -0.03125 23.535156 0 22.890625 0 C 22.765625 0 22.703125 -0.09375 22.703125 -0.28125 C 22.703125 -0.476562 22.765625 -0.578125 22.890625 -0.578125 C 23.722656 -0.578125 24.320312 -0.664062 24.6875 -0.84375 C 25.0625 -1.019531 25.25 -1.332031 25.25 -1.78125 C 25.25 -2.320312 24.925781 -3.234375 24.28125 -4.515625 L 21.03125 -10.984375 L 9.21875 -10.984375 L 7.34375 -6.8125 C 6.925781 -5.882812 6.71875 -5.019531 6.71875 -4.21875 C 6.71875 -3.070312 7.125 -2.175781 7.9375 -1.53125 C 8.757812 -0.894531 9.859375 -0.578125 11.234375 -0.578125 C 11.390625 -0.578125 11.46875 -0.476562 11.46875 -0.28125 C 11.46875 -0.09375 11.390625 0 11.234375 0 C 10.660156 0 9.828125 -0.03125 8.734375 -0.09375 C 7.515625 -0.15625 6.457031 -0.1875 5.5625 -0.1875 C 4.695312 -0.1875 3.660156 -0.15625 2.453125 -0.09375 C 1.359375 -0.03125 0.476562 0 -0.1875 0 C -0.320312 0 -0.390625 -0.09375 -0.390625 -0.28125 C -0.390625 -0.476562 -0.320312 -0.578125 -0.1875 -0.578125 C 0.707031 -0.578125 1.457031 -0.757812 2.0625 -1.125 C 2.664062 -1.5 3.269531 -2.15625 3.875 -3.09375 C 4.488281 -4.039062 5.210938 -5.441406 6.046875 -7.296875 L 16.46875 -30.1875 C 16.53125 -30.289062 16.671875 -30.34375 16.890625 -30.34375 C 17.148438 -30.34375 17.296875 -30.289062 17.328125 -30.1875 L 29.328125 -6.578125 C 30.453125 -4.304688 31.378906 -2.738281 32.109375 -1.875 C 32.847656 -1.007812 33.617188 -0.578125 34.421875 -0.578125 Z M 9.84375 -12.34375 L 20.296875 -12.34375 L 14.78125 -23.28125 Z M 9.84375 -12.34375 "/></g></g></g><g fill="#000000" fill-opacity="1"><g transform="translate(86.28906, 271.951593)"><g><path d="M 5.390625 -16.25 C 5.390625 -15.5 5.582031 -14.832031 5.96875 -14.25 C 6.351562 -13.675781 6.820312 -13.171875 7.375 -12.734375 C 7.9375 -12.304688 8.691406 -11.78125 9.640625 -11.15625 C 10.671875 -10.5 11.492188 -9.921875 12.109375 -9.421875 C 12.734375 -8.929688 13.265625 -8.328125 13.703125 -7.609375 C 14.140625 -6.898438 14.359375 -6.078125 14.359375 -5.140625 C 14.359375 -4.066406 14.066406 -3.109375 13.484375 -2.265625 C 12.898438 -1.429688 12.097656 -0.78125 11.078125 -0.3125 C 10.054688 0.144531 8.914062 0.375 7.65625 0.375 C 6.726562 0.375 5.753906 0.242188 4.734375 -0.015625 C 3.722656 -0.273438 3.046875 -0.5625 2.703125 -0.875 C 2.597656 -0.945312 2.519531 -1.019531 2.46875 -1.09375 C 2.414062 -1.164062 2.390625 -1.285156 2.390625 -1.453125 L 2.296875 -6.390625 L 2.296875 -6.421875 C 2.296875 -6.503906 2.347656 -6.550781 2.453125 -6.5625 C 2.554688 -6.570312 2.617188 -6.535156 2.640625 -6.453125 C 3.253906 -5.191406 3.789062 -4.164062 4.25 -3.375 C 4.71875 -2.59375 5.304688 -1.898438 6.015625 -1.296875 C 6.734375 -0.703125 7.550781 -0.40625 8.46875 -0.40625 C 9.289062 -0.40625 9.96875 -0.625 10.5 -1.0625 C 11.039062 -1.507812 11.3125 -2.269531 11.3125 -3.34375 C 11.3125 -4.257812 11.109375 -5.054688 10.703125 -5.734375 C 10.304688 -6.421875 9.816406 -7 9.234375 -7.46875 C 8.660156 -7.945312 7.863281 -8.515625 6.84375 -9.171875 C 5.851562 -9.816406 5.082031 -10.363281 4.53125 -10.8125 C 3.988281 -11.269531 3.519531 -11.816406 3.125 -12.453125 C 2.738281 -13.097656 2.546875 -13.851562 2.546875 -14.71875 C 2.546875 -15.820312 2.859375 -16.75 3.484375 -17.5 C 4.117188 -18.25 4.929688 -18.804688 5.921875 -19.171875 C 6.910156 -19.535156 7.953125 -19.71875 9.046875 -19.71875 C 9.773438 -19.71875 10.507812 -19.648438 11.25 -19.515625 C 12 -19.378906 12.597656 -19.21875 13.046875 -19.03125 C 13.234375 -18.945312 13.359375 -18.859375 13.421875 -18.765625 C 13.484375 -18.671875 13.515625 -18.550781 13.515625 -18.40625 L 13.515625 -13.859375 C 13.515625 -13.796875 13.460938 -13.75 13.359375 -13.71875 C 13.253906 -13.6875 13.191406 -13.703125 13.171875 -13.765625 L 12.921875 -14.359375 C 12.410156 -15.660156 11.804688 -16.765625 11.109375 -17.671875 C 10.421875 -18.578125 9.457031 -19.03125 8.21875 -19.03125 C 7.382812 -19.03125 6.703125 -18.789062 6.171875 -18.3125 C 5.648438 -17.84375 5.390625 -17.15625 5.390625 -16.25 Z M 5.390625 -16.25 "/></g></g></g><g fill="#000000" fill-opacity="1"><g transform="translate(106.127064, 271.951593)"><g><path d="M 11.34375 0.375 C 9.425781 0.375 7.71875 -0.0703125 6.21875 -0.96875 C 4.71875 -1.875 3.554688 -3.09375 2.734375 -4.625 C 1.921875 -6.164062 1.515625 -7.847656 1.515625 -9.671875 C 1.515625 -11.796875 2.050781 -13.617188 3.125 -15.140625 C 4.207031 -16.660156 5.585938 -17.800781 7.265625 -18.5625 C 8.953125 -19.332031 10.675781 -19.71875 12.4375 -19.71875 C 14.394531 -19.71875 16.117188 -19.253906 17.609375 -18.328125 C 19.097656 -17.410156 20.238281 -16.195312 21.03125 -14.6875 C 21.832031 -13.1875 22.234375 -11.585938 22.234375 -9.890625 C 22.234375 -8.003906 21.734375 -6.273438 20.734375 -4.703125 C 19.742188 -3.140625 18.414062 -1.898438 16.75 -0.984375 C 15.09375 -0.078125 13.289062 0.375 11.34375 0.375 Z M 12.375 -0.40625 C 13.53125 -0.40625 14.566406 -0.738281 15.484375 -1.40625 C 16.398438 -2.082031 17.113281 -3.066406 17.625 -4.359375 C 18.144531 -5.648438 18.40625 -7.191406 18.40625 -8.984375 C 18.40625 -10.890625 18.113281 -12.59375 17.53125 -14.09375 C 16.957031 -15.59375 16.125 -16.765625 15.03125 -17.609375 C 13.9375 -18.453125 12.65625 -18.875 11.1875 -18.875 C 9.3125 -18.875 7.863281 -18.164062 6.84375 -16.75 C 5.832031 -15.332031 5.328125 -13.351562 5.328125 -10.8125 C 5.328125 -8.8125 5.628906 -7.019531 6.234375 -5.4375 C 6.847656 -3.851562 7.6875 -2.617188 8.75 -1.734375 C 9.820312 -0.847656 11.03125 -0.40625 12.375 -0.40625 Z M 12.375 -0.40625 "/></g></g></g><g fill="#000000" fill-opacity="1"><g transform="translate(133.745106, 271.951593)"><g><path d="M 6.609375 -2.640625 C 6.609375 -2.097656 6.644531 -1.707031 6.71875 -1.46875 C 6.800781 -1.226562 6.960938 -1.066406 7.203125 -0.984375 C 7.441406 -0.910156 7.832031 -0.875 8.375 -0.875 L 9.421875 -0.875 C 11.035156 -0.875 12.429688 -1.300781 13.609375 -2.15625 C 14.785156 -3.007812 15.570312 -4.171875 15.96875 -5.640625 C 15.96875 -5.679688 16.007812 -5.703125 16.09375 -5.703125 C 16.132812 -5.703125 16.179688 -5.6875 16.234375 -5.65625 C 16.285156 -5.625 16.3125 -5.597656 16.3125 -5.578125 C 16.125 -3.535156 16.03125 -1.832031 16.03125 -0.46875 C 16.03125 -0.300781 15.992188 -0.179688 15.921875 -0.109375 C 15.847656 -0.0351562 15.726562 0 15.5625 0 L 0.9375 0 C 0.894531 0 0.875 -0.0625 0.875 -0.1875 C 0.875 -0.3125 0.894531 -0.375 0.9375 -0.375 C 1.59375 -0.375 2.070312 -0.425781 2.375 -0.53125 C 2.675781 -0.632812 2.878906 -0.832031 2.984375 -1.125 C 3.097656 -1.425781 3.15625 -1.890625 3.15625 -2.515625 L 3.15625 -16.859375 C 3.15625 -17.484375 3.097656 -17.9375 2.984375 -18.21875 C 2.878906 -18.507812 2.671875 -18.710938 2.359375 -18.828125 C 2.046875 -18.941406 1.570312 -19 0.9375 -19 C 0.894531 -19 0.875 -19.0625 0.875 -19.1875 C 0.875 -19.3125 0.894531 -19.375 0.9375 -19.375 L 2.515625 -19.34375 C 3.460938 -19.300781 4.242188 -19.28125 4.859375 -19.28125 C 5.484375 -19.28125 6.269531 -19.300781 7.21875 -19.34375 L 8.796875 -19.375 C 8.859375 -19.375 8.890625 -19.3125 8.890625 -19.1875 C 8.890625 -19.0625 8.859375 -19 8.796875 -19 C 8.160156 -19 7.6875 -18.941406 7.375 -18.828125 C 7.0625 -18.710938 6.851562 -18.503906 6.75 -18.203125 C 6.65625 -17.910156 6.609375 -17.453125 6.609375 -16.828125 Z M 6.609375 -2.640625 "/></g></g></g><g fill="#000000" fill-opacity="1"><g transform="translate(154.513002, 271.951593)"><g><path d="M 17.703125 -15.40625 C 17.703125 -16.519531 17.445312 -17.394531 16.9375 -18.03125 C 16.4375 -18.675781 15.726562 -19 14.8125 -19 C 14.769531 -19 14.75 -19.0625 14.75 -19.1875 C 14.75 -19.3125 14.769531 -19.375 14.8125 -19.375 L 16.3125 -19.34375 C 17.09375 -19.300781 17.722656 -19.28125 18.203125 -19.28125 C 18.585938 -19.28125 19.15625 -19.300781 19.90625 -19.34375 L 21.328125 -19.375 C 21.367188 -19.375 21.390625 -19.3125 21.390625 -19.1875 C 21.390625 -19.0625 21.367188 -19 21.328125 -19 C 20.523438 -19 19.894531 -18.675781 19.4375 -18.03125 C 18.976562 -17.394531 18.75 -16.519531 18.75 -15.40625 L 18.75 -6.78125 C 18.75 -5.34375 18.425781 -4.070312 17.78125 -2.96875 C 17.144531 -1.875 16.242188 -1.03125 15.078125 -0.4375 C 13.910156 0.144531 12.5625 0.4375 11.03125 0.4375 C 9.5 0.4375 8.144531 0.148438 6.96875 -0.421875 C 5.789062 -1.003906 4.863281 -1.847656 4.1875 -2.953125 C 3.519531 -4.066406 3.1875 -5.363281 3.1875 -6.84375 L 3.1875 -16.859375 C 3.1875 -17.484375 3.128906 -17.9375 3.015625 -18.21875 C 2.910156 -18.507812 2.707031 -18.710938 2.40625 -18.828125 C 2.101562 -18.941406 1.628906 -19 0.984375 -19 C 0.929688 -19 0.90625 -19.0625 0.90625 -19.1875 C 0.90625 -19.3125 0.929688 -19.375 0.984375 -19.375 L 2.640625 -19.34375 C 3.585938 -19.300781 4.335938 -19.28125 4.890625 -19.28125 C 5.515625 -19.28125 6.300781 -19.300781 7.25 -19.34375 L 8.828125 -19.375 C 8.890625 -19.375 8.921875 -19.3125 8.921875 -19.1875 C 8.921875 -19.0625 8.890625 -19 8.828125 -19 C 8.191406 -19 7.722656 -18.9375 7.421875 -18.8125 C 7.117188 -18.6875 6.910156 -18.472656 6.796875 -18.171875 C 6.691406 -17.878906 6.640625 -17.421875 6.640625 -16.796875 L 6.640625 -7.9375 C 6.640625 -5.476562 7.125 -3.660156 8.09375 -2.484375 C 9.0625 -1.304688 10.4375 -0.71875 12.21875 -0.71875 C 13.925781 -0.71875 15.265625 -1.238281 16.234375 -2.28125 C 17.210938 -3.320312 17.703125 -4.816406 17.703125 -6.765625 Z M 17.703125 -15.40625 "/></g></g></g><g fill="#000000" fill-opacity="1"><g transform="translate(180.178292, 271.951593)"><g><path d="M 6.875 -18.65625 C 4.414062 -18.65625 2.648438 -17.054688 1.578125 -13.859375 C 1.554688 -13.796875 1.492188 -13.769531 1.390625 -13.78125 C 1.285156 -13.789062 1.234375 -13.828125 1.234375 -13.890625 C 1.316406 -14.710938 1.410156 -15.78125 1.515625 -17.09375 C 1.617188 -18.40625 1.671875 -19.394531 1.671875 -20.0625 C 1.671875 -20.164062 1.726562 -20.21875 1.84375 -20.21875 C 1.957031 -20.21875 2.015625 -20.164062 2.015625 -20.0625 C 2.015625 -19.601562 2.601562 -19.375 3.78125 -19.375 C 5.5625 -19.3125 7.640625 -19.28125 10.015625 -19.28125 C 11.234375 -19.28125 12.523438 -19.300781 13.890625 -19.34375 L 16 -19.375 C 16.78125 -19.375 17.351562 -19.425781 17.71875 -19.53125 C 18.082031 -19.632812 18.3125 -19.84375 18.40625 -20.15625 C 18.425781 -20.238281 18.492188 -20.28125 18.609375 -20.28125 C 18.722656 -20.28125 18.78125 -20.238281 18.78125 -20.15625 C 18.71875 -19.53125 18.648438 -18.535156 18.578125 -17.171875 C 18.503906 -15.804688 18.46875 -14.710938 18.46875 -13.890625 C 18.46875 -13.828125 18.414062 -13.796875 18.3125 -13.796875 C 18.21875 -13.796875 18.160156 -13.828125 18.140625 -13.890625 C 17.828125 -15.484375 17.242188 -16.675781 16.390625 -17.46875 C 15.546875 -18.257812 14.503906 -18.65625 13.265625 -18.65625 C 12.671875 -18.65625 12.273438 -18.523438 12.078125 -18.265625 C 11.878906 -18.015625 11.78125 -17.523438 11.78125 -16.796875 L 11.78125 -2.515625 C 11.78125 -1.867188 11.84375 -1.398438 11.96875 -1.109375 C 12.09375 -0.828125 12.328125 -0.632812 12.671875 -0.53125 C 13.023438 -0.425781 13.585938 -0.375 14.359375 -0.375 C 14.421875 -0.375 14.453125 -0.3125 14.453125 -0.1875 C 14.453125 -0.0625 14.421875 0 14.359375 0 C 13.609375 0 13.019531 -0.0078125 12.59375 -0.03125 L 10.015625 -0.0625 L 7.5 -0.03125 C 7.0625 -0.0078125 6.460938 0 5.703125 0 C 5.640625 0 5.609375 -0.0625 5.609375 -0.1875 C 5.609375 -0.3125 5.640625 -0.375 5.703125 -0.375 C 6.441406 -0.375 6.992188 -0.425781 7.359375 -0.53125 C 7.722656 -0.632812 7.972656 -0.832031 8.109375 -1.125 C 8.242188 -1.425781 8.3125 -1.890625 8.3125 -2.515625 L 8.3125 -16.859375 C 8.3125 -17.566406 8.21875 -18.039062 8.03125 -18.28125 C 7.84375 -18.53125 7.457031 -18.65625 6.875 -18.65625 Z M 6.875 -18.65625 "/></g></g></g><g fill="#000000" fill-opacity="1"><g transform="translate(203.983799, 271.951593)"><g><path d="M 7.03125 -2.515625 C 7.03125 -1.867188 7.082031 -1.398438 7.1875 -1.109375 C 7.289062 -0.828125 7.492188 -0.632812 7.796875 -0.53125 C 8.097656 -0.425781 8.578125 -0.375 9.234375 -0.375 C 9.296875 -0.375 9.328125 -0.3125 9.328125 -0.1875 C 9.328125 -0.0625 9.296875 0 9.234375 0 C 8.554688 0 8.019531 -0.0078125 7.625 -0.03125 L 5.265625 -0.0625 L 2.96875 -0.03125 C 2.5625 -0.0078125 2.003906 0 1.296875 0 C 1.253906 0 1.234375 -0.0625 1.234375 -0.1875 C 1.234375 -0.3125 1.253906 -0.375 1.296875 -0.375 C 1.960938 -0.375 2.445312 -0.425781 2.75 -0.53125 C 3.0625 -0.632812 3.273438 -0.832031 3.390625 -1.125 C 3.503906 -1.425781 3.5625 -1.890625 3.5625 -2.515625 L 3.5625 -16.859375 C 3.5625 -17.484375 3.503906 -17.9375 3.390625 -18.21875 C 3.273438 -18.507812 3.0625 -18.710938 2.75 -18.828125 C 2.445312 -18.941406 1.960938 -19 1.296875 -19 C 1.253906 -19 1.234375 -19.0625 1.234375 -19.1875 C 1.234375 -19.3125 1.253906 -19.375 1.296875 -19.375 L 2.96875 -19.34375 C 3.925781 -19.300781 4.691406 -19.28125 5.265625 -19.28125 C 5.910156 -19.28125 6.707031 -19.300781 7.65625 -19.34375 L 9.234375 -19.375 C 9.296875 -19.375 9.328125 -19.3125 9.328125 -19.1875 C 9.328125 -19.0625 9.296875 -19 9.234375 -19 C 8.597656 -19 8.125 -18.9375 7.8125 -18.8125 C 7.5 -18.6875 7.289062 -18.472656 7.1875 -18.171875 C 7.082031 -17.878906 7.03125 -17.421875 7.03125 -16.796875 Z M 7.03125 -2.515625 "/></g></g></g><g fill="#000000" fill-opacity="1"><g transform="translate(218.459475, 271.951593)"><g><path d="M 11.34375 0.375 C 9.425781 0.375 7.71875 -0.0703125 6.21875 -0.96875 C 4.71875 -1.875 3.554688 -3.09375 2.734375 -4.625 C 1.921875 -6.164062 1.515625 -7.847656 1.515625 -9.671875 C 1.515625 -11.796875 2.050781 -13.617188 3.125 -15.140625 C 4.207031 -16.660156 5.585938 -17.800781 7.265625 -18.5625 C 8.953125 -19.332031 10.675781 -19.71875 12.4375 -19.71875 C 14.394531 -19.71875 16.117188 -19.253906 17.609375 -18.328125 C 19.097656 -17.410156 20.238281 -16.195312 21.03125 -14.6875 C 21.832031 -13.1875 22.234375 -11.585938 22.234375 -9.890625 C 22.234375 -8.003906 21.734375 -6.273438 20.734375 -4.703125 C 19.742188 -3.140625 18.414062 -1.898438 16.75 -0.984375 C 15.09375 -0.078125 13.289062 0.375 11.34375 0.375 Z M 12.375 -0.40625 C 13.53125 -0.40625 14.566406 -0.738281 15.484375 -1.40625 C 16.398438 -2.082031 17.113281 -3.066406 17.625 -4.359375 C 18.144531 -5.648438 18.40625 -7.191406 18.40625 -8.984375 C 18.40625 -10.890625 18.113281 -12.59375 17.53125 -14.09375 C 16.957031 -15.59375 16.125 -16.765625 15.03125 -17.609375 C 13.9375 -18.453125 12.65625 -18.875 11.1875 -18.875 C 9.3125 -18.875 7.863281 -18.164062 6.84375 -16.75 C 5.832031 -15.332031 5.328125 -13.351562 5.328125 -10.8125 C 5.328125 -8.8125 5.628906 -7.019531 6.234375 -5.4375 C 6.847656 -3.851562 7.6875 -2.617188 8.75 -1.734375 C 9.820312 -0.847656 11.03125 -0.40625 12.375 -0.40625 Z M 12.375 -0.40625 "/></g></g></g><g fill="#000000" fill-opacity="1"><g transform="translate(246.077523, 271.951593)"><g><path d="M 22.40625 -19.375 C 22.445312 -19.375 22.46875 -19.3125 22.46875 -19.1875 C 22.46875 -19.0625 22.445312 -19 22.40625 -19 C 21.582031 -19 20.929688 -18.671875 20.453125 -18.015625 C 19.984375 -17.367188 19.75 -16.5 19.75 -15.40625 L 19.75 0.46875 C 19.75 0.53125 19.703125 0.570312 19.609375 0.59375 C 19.515625 0.613281 19.445312 0.601562 19.40625 0.5625 L 4.859375 -16 L 4.859375 -3.9375 C 4.859375 -2.84375 5.085938 -1.972656 5.546875 -1.328125 C 6.003906 -0.691406 6.632812 -0.375 7.4375 -0.375 C 7.476562 -0.375 7.5 -0.3125 7.5 -0.1875 C 7.5 -0.0625 7.476562 0 7.4375 0 C 6.863281 0 6.421875 -0.0078125 6.109375 -0.03125 L 4.4375 -0.0625 L 2.515625 -0.03125 C 2.160156 -0.0078125 1.648438 0 0.984375 0 C 0.929688 0 0.90625 -0.0625 0.90625 -0.1875 C 0.90625 -0.3125 0.929688 -0.375 0.984375 -0.375 C 1.898438 -0.375 2.617188 -0.691406 3.140625 -1.328125 C 3.671875 -1.972656 3.9375 -2.84375 3.9375 -3.9375 L 3.9375 -17.046875 C 3.25 -17.796875 2.660156 -18.304688 2.171875 -18.578125 C 1.691406 -18.859375 1.195312 -19 0.6875 -19 C 0.644531 -19 0.625 -19.0625 0.625 -19.1875 C 0.625 -19.3125 0.644531 -19.375 0.6875 -19.375 L 1.984375 -19.34375 C 2.253906 -19.320312 2.644531 -19.3125 3.15625 -19.3125 L 5.515625 -19.34375 C 5.804688 -19.363281 6.160156 -19.375 6.578125 -19.375 C 6.734375 -19.375 6.851562 -19.332031 6.9375 -19.25 C 7.019531 -19.164062 7.164062 -18.988281 7.375 -18.71875 C 7.726562 -18.25 7.976562 -17.929688 8.125 -17.765625 L 18.84375 -5.390625 L 18.84375 -15.40625 C 18.84375 -16.519531 18.613281 -17.394531 18.15625 -18.03125 C 17.707031 -18.675781 17.082031 -19 16.28125 -19 C 16.238281 -19 16.21875 -19.0625 16.21875 -19.1875 C 16.21875 -19.3125 16.238281 -19.375 16.28125 -19.375 L 17.609375 -19.34375 C 18.265625 -19.300781 18.820312 -19.28125 19.28125 -19.28125 C 19.695312 -19.28125 20.273438 -19.300781 21.015625 -19.34375 Z M 22.40625 -19.375 "/></g></g></g><g fill="#000000" fill-opacity="1"><g transform="translate(272.734679, 271.951593)"><g><path d="M 5.390625 -16.25 C 5.390625 -15.5 5.582031 -14.832031 5.96875 -14.25 C 6.351562 -13.675781 6.820312 -13.171875 7.375 -12.734375 C 7.9375 -12.304688 8.691406 -11.78125 9.640625 -11.15625 C 10.671875 -10.5 11.492188 -9.921875 12.109375 -9.421875 C 12.734375 -8.929688 13.265625 -8.328125 13.703125 -7.609375 C 14.140625 -6.898438 14.359375 -6.078125 14.359375 -5.140625 C 14.359375 -4.066406 14.066406 -3.109375 13.484375 -2.265625 C 12.898438 -1.429688 12.097656 -0.78125 11.078125 -0.3125 C 10.054688 0.144531 8.914062 0.375 7.65625 0.375 C 6.726562 0.375 5.753906 0.242188 4.734375 -0.015625 C 3.722656 -0.273438 3.046875 -0.5625 2.703125 -0.875 C 2.597656 -0.945312 2.519531 -1.019531 2.46875 -1.09375 C 2.414062 -1.164062 2.390625 -1.285156 2.390625 -1.453125 L 2.296875 -6.390625 L 2.296875 -6.421875 C 2.296875 -6.503906 2.347656 -6.550781 2.453125 -6.5625 C 2.554688 -6.570312 2.617188 -6.535156 2.640625 -6.453125 C 3.253906 -5.191406 3.789062 -4.164062 4.25 -3.375 C 4.71875 -2.59375 5.304688 -1.898438 6.015625 -1.296875 C 6.734375 -0.703125 7.550781 -0.40625 8.46875 -0.40625 C 9.289062 -0.40625 9.96875 -0.625 10.5 -1.0625 C 11.039062 -1.507812 11.3125 -2.269531 11.3125 -3.34375 C 11.3125 -4.257812 11.109375 -5.054688 10.703125 -5.734375 C 10.304688 -6.421875 9.816406 -7 9.234375 -7.46875 C 8.660156 -7.945312 7.863281 -8.515625 6.84375 -9.171875 C 5.851562 -9.816406 5.082031 -10.363281 4.53125 -10.8125 C 3.988281 -11.269531 3.519531 -11.816406 3.125 -12.453125 C 2.738281 -13.097656 2.546875 -13.851562 2.546875 -14.71875 C 2.546875 -15.820312 2.859375 -16.75 3.484375 -17.5 C 4.117188 -18.25 4.929688 -18.804688 5.921875 -19.171875 C 6.910156 -19.535156 7.953125 -19.71875 9.046875 -19.71875 C 9.773438 -19.71875 10.507812 -19.648438 11.25 -19.515625 C 12 -19.378906 12.597656 -19.21875 13.046875 -19.03125 C 13.234375 -18.945312 13.359375 -18.859375 13.421875 -18.765625 C 13.484375 -18.671875 13.515625 -18.550781 13.515625 -18.40625 L 13.515625 -13.859375 C 13.515625 -13.796875 13.460938 -13.75 13.359375 -13.71875 C 13.253906 -13.6875 13.191406 -13.703125 13.171875 -13.765625 L 12.921875 -14.359375 C 12.410156 -15.660156 11.804688 -16.765625 11.109375 -17.671875 C 10.421875 -18.578125 9.457031 -19.03125 8.21875 -19.03125 C 7.382812 -19.03125 6.703125 -18.789062 6.171875 -18.3125 C 5.648438 -17.84375 5.390625 -17.15625 5.390625 -16.25 Z M 5.390625 -16.25 "/></g></g></g></svg>